<?xml version="1.0" standalone="no"?>
<!DOCTYPE svg PUBLIC "-//W3C//DTD SVG 1.1//EN" "http://www.w3.org/Graphics/SVG/1.1/DTD/svg11.dtd">
<svg xmlns="http://www.w3.org/2000/svg" xmlns:svg="http://www.w3.org/2000/svg" width="512" height="512" viewBox="0 0 512 512" version="1.1" id="svg1" xml:space="preserve"><defs id="defs1"/><g id="layer1"><path d="m 17.373163,318.20127 2.304,-2.496 q 3.648,-3.84 3.648,-13.248 v -82.368 q 0,-9.024 -3.648,-12.672 l -2.496,-2.688 q -2.88,-3.072 -2.88,-5.76 0,-4.8 5.952,-6.144 l 18.816,-4.224 q 3.456,-0.768 4.992,-0.768 6.528,0 6.528,6.528 v 53.76 q 11.712,-15.168 32.448,-15.168 16.32,0 24.959997,9.6 8.832,9.408 8.832,27.84 v 32.064 q 0,9.792 3.648,13.248 l 2.496,2.496 q 3.072,3.072 3.072,5.76 0,5.952 -7.104,5.952 H 88.413163 q -7.104,0 -7.104,-5.952 0,-2.88 2.88,-5.76 l 1.92,-2.112 q 3.648,-3.84 3.648,-13.248 v -30.528 q 0,-23.616 -17.664,-23.616 -8.64,0 -15.168,5.76 -6.336,5.76 -6.336,12.096 v 36.288 q 0,9.408 3.648,13.248 l 1.92,2.112 q 2.688,2.688 2.688,5.76 0,5.952 -7.104,5.952 h -30.528 q -6.912,0 -6.912,-5.76 0,-2.88 3.072,-5.952 z m 120.192087,-34.752 q 0,-22.464 14.4,-36.48 14.4,-14.016 36.288,-14.016 18.624,0 30.144,9.984 11.52,9.792 11.52,25.344 0,6.912 -3.264,10.56 -3.264,3.648 -9.024,3.648 h -52.032 q 1.344,14.976 9.024,23.424 7.68,8.256 21.312,8.256 12.48,0 22.656,-8.064 4.608,-3.072 6.72,-3.072 4.416,0 4.416,5.184 0,4.416 -5.952,9.792 -14.016,13.824 -37.248,13.824 -22.272,0 -35.712,-13.248 -13.248,-13.44 -13.248,-35.136 z m 28.224,-12.864 h 29.76 q 9.408,0 9.408,-8.064 0,-7.488 -4.416,-12.672 -4.416,-5.184 -13.056,-5.184 -8.832,0 -14.784,6.912 -5.76,6.912 -6.912,19.008 z m 92.15991,10.176 q 14.592,-8.64 48.768,-9.792 v -3.84 q 0,-10.176 -5.184,-15.744 -4.992,-5.76 -13.632,-5.76 -6.528,0 -10.56,3.072 -4.032,2.88 -5.568,6.336 -1.344,3.456 -4.416,6.528 -2.88,2.88 -7.68,2.88 -5.184,0 -8.256,-2.688 -3.072,-2.88 -3.072,-7.488 0,-9.216 12.288,-15.168 12.48,-6.144 29.952,-6.144 21.312,0 32.256,9.024 10.944,8.832 10.944,25.728 v 35.136 q 0,4.032 1.728,6.528 1.92,2.304 4.032,2.88 2.112,0.576 3.84,1.92 1.92,1.344 1.92,3.648 0,3.84 -6.528,7.488 -11.904,6.336 -21.12,6.336 -8.64,0 -8.64,-9.792 v -6.144 h -0.576 q -14.592,16.128 -33.792,16.128 -14.592,0 -23.04,-7.104 -8.448,-7.104 -8.448,-19.776 0,-15.36 14.784,-24.192 z m 16.704,31.488 q 4.032,3.84 10.944,3.84 8.256,0 14.592,-5.376 6.528,-5.376 6.528,-12.096 v -16.512 q -36.288,2.112 -36.288,19.776 0,6.72 4.224,10.368 z m 87.16787,-119.424 18.816,-4.224 q 3.072,-0.768 4.992,-0.768 6.528,0 6.528,6.528 v 108.096 q 0,9.6 3.648,13.248 l 2.304,2.496 q 3.072,3.072 3.072,5.76 0,5.952 -7.104,5.952 h -31.296 q -6.912,0 -6.912,-5.76 0,-2.88 3.072,-5.952 l 2.304,-2.496 q 3.648,-3.84 3.648,-13.248 v -82.368 q 0,-9.024 -3.648,-12.672 l -2.496,-2.688 q -2.88,-3.072 -2.88,-5.76 0,-4.8 5.952,-6.144 z m 54.52817,112.512 q 3.072,-2.88 7.68,-2.88 3.648,0 6.72,2.688 3.264,2.688 5.568,5.952 2.304,3.072 7.488,5.76 5.184,2.688 12.288,2.688 8.64,0 13.248,-3.264 4.8,-3.264 4.8,-8.064 0,-5.376 -5.184,-8.256 -4.992,-2.88 -15.36,-5.76 -18.432,-5.184 -24.96,-9.408 -11.904,-7.488 -11.904,-21.12 0,-13.632 11.328,-22.08 11.328,-8.64 30.72,-8.64 15.36,0 25.92,4.608 10.56,4.608 10.56,12.672 0,4.224 -2.88,6.72 -2.88,2.496 -6.912,2.496 -3.456,0 -6.528,-2.112 -2.88,-2.304 -4.992,-4.992 -2.112,-2.688 -6.72,-4.8 -4.608,-2.304 -10.752,-2.304 -7.104,0 -11.52,3.072 -4.224,3.072 -4.224,7.68 0,5.76 5.76,8.832 5.76,2.88 17.28,5.952 1.152,0.192 1.728,0.384 7.488,2.112 11.904,3.84 4.608,1.536 10.176,4.8 5.568,3.264 8.256,8.256 2.688,4.992 2.688,11.712 0,14.4 -12.096,23.232 -11.904,8.832 -33.6,8.832 -16.128,0 -27.84,-5.376 -11.712,-5.376 -11.712,-13.632 0,-4.416 3.072,-7.488 z" id="text2" style="font-size:192px;line-height:0.7;font-family:Bogue-Semibold;-inkscape-font-specification:Bogue-Semibold;text-align:center;text-anchor:middle;fill:#12f5ff" aria-label="heals"/></g></svg>